<svg id="Layer_3" enable-background="new 0 0 64 64" height="512" viewBox="0 0 64 64" width="512" xmlns="http://www.w3.org/2000/svg"><g><g fill="#669e54"><path d="m56 10h4v15h-4z"/><path d="m48 16h4v9h-4z"/><path d="m40 19h4v6h-4z"/></g><g fill="#88929f"><path d="m44.293 28.293-13 13 1.414 1.414 12.707-12.707h17.586v-2h-18c-.266 0-.52.105-.707.293z"/><path d="m37 24h26v2h-26z"/><path d="m46.414 7h5.586c.266 0 .52-.105.707-.293l2.293-2.293v2.586h2v-5c0-.553-.447-1-1-1h-5v2h2.586l-2 2h-5.586c-.266 0-.52.105-.707.293l-6 6 1.414 1.414z"/></g><path d="m33 41h-6l-5 6-5-6h-6c-4.971 0-9 4.029-9 9v12h40v-12c0-4.971-4.029-9-9-9z" fill="#c7e2fb"/><path d="m11.5 60c12.182 0 22.637-7.009 27.138-17.01-1.543-1.243-3.502-1.99-5.638-1.99h-6l-5 6-5-6h-6c-4.971 0-9 4.029-9 9v8.508c2.982.962 6.175 1.492 9.5 1.492z" fill="#ebf7fe"/><path d="m22 47-5-6h-4l3 9z" fill="#4472b0"/><g><path d="m22 47-2.8 1.4 1.8 3.6h2l1.8-3.6z" fill="#2d4d81"/></g><path d="m22 47 5-6h4l-3 9z" fill="#4472b0"/><path d="m25 62-2-10h-2l-2 10z" fill="#4472b0"/><g><path d="m35 55h2v7h-2z" fill="#95aabc"/></g><g><path d="m7 55h2v7h-2z" fill="#95aabc"/></g><path d="m31 24v6c0 4.971-4.029 9-9 9-4.971 0-9-4.029-9-9v-6h6c1.889 0 3.667-.889 4.8-2.4l1.2-1.6 1.2 1.6c1.133 1.511 2.911 2.4 4.8 2.4z" fill="#efbe9c"/><path d="m13 30v-5h-1c-1.657 0-3 1.343-3 3s1.343 3 3 3h1.059c-.037-.329-.059-.662-.059-1z" fill="#efbe9c"/><path d="m22 10c-6.627 0-12 5.373-12 12v3.779c.532-.479 1.228-.779 2-.779h1v-1h6c1.889 0 3.667-.889 4.8-2.4l1.2-1.6 1.2 1.6c1.133 1.511 2.911 2.4 4.8 2.4v1h1c.772 0 1.468.3 2 .779v-3.779c0-6.627-5.373-12-12-12z" fill="#976949"/><path d="m32 25h-1v5c0 .338-.022.671-.059 1h1.059c1.657 0 3-1.343 3-3s-1.343-3-3-3z" fill="#efbe9c"/><path d="m22 39c-1.851 0-3.57-.56-5-1.518v3.518l5 6 5-6v-3.518c-1.43.958-3.149 1.518-5 1.518z" fill="#efbe9c"/></g></svg>