<svg id="Capa_1" enable-background="new 0 0 496.215 496.215" height="512" viewBox="0 0 496.215 496.215" width="512" xmlns="http://www.w3.org/2000/svg"><g><path d="m428.344 466.215c-.286 0-27.337-24.626-29.188-22.775s-93.994 0-93.994 0l-28.602 22.549v.225 20.482c0 5.257 4.262 9.518 9.519 9.518h133.033c5.257 0 9.519-4.261 9.519-9.518v-20.482-.035c-.173.023-.274.036-.287.036z" fill="#62dbfb"/><circle cx="247.464" cy="161.84" fill="#f9f7f8" r="161.84"/><path d="m259.364 274.105 84.23-92.41c21.3-23.38 20.47-59.37-1.9-81.73l-.19-.2c-23.12-23.11-60.6-23.11-83.71 0l-10.57 10.57-10.79-10.74c-23.13-23.03-60.54-23-83.62.09-11.54 11.53-17.34 26.68-17.34 41.86 0 14.39 5.22 28.81 15.73 40.17l85.47 92.47c6.13 6.62 16.61 6.59 22.69-.08z" fill="#fd8087"/><g><path d="m194.709 181.715c-10.51-11.36-15.73-25.78-15.73-40.17 0-15.18 5.8-30.33 17.34-41.86 5.918-5.921 12.781-10.314 20.102-13.202-21.271-8.393-46.413-3.998-63.606 13.202-11.54 11.53-17.34 26.68-17.34 41.86 0 14.39 5.22 28.81 15.73 40.17l85.47 92.47c6.13 6.62 16.61 6.59 22.69-.08l10.298-11.298z" fill="#fe646f"/></g><g id="XMLID_171_"><g><path d="m205.454 436.665-.04.25c-.94-.17-1.9-.25-2.89-.25h-117.81c-.99 0-1.96.08-2.9.25l-.04-.25v-54.14l-59.19-72.24c-5.83-7.1-9.01-16.01-9.01-25.2v-128.6c0-6.69 2.71-12.74 7.09-17.13 4.38-4.38 10.44-7.09 17.13-7.09 12.87 0 23.49 10.07 24.18 22.93l4.77 89.45.16.21c3.53-2.69 7.78-4.05 12.04-4.05 4.47 0 8.95 1.49 12.64 4.52l103.72 84.96c6.43 5.26 10.15 13.13 10.15 21.44z" fill="#ffcebf"/></g><path d="m104.531 380.444c0-10.969-3.799-21.599-10.751-30.084l-48.439-59.119c-5.83-7.1-9.01-16.01-9.01-25.2v-128.6c0-1.77.195-3.493.555-5.154-6.329.234-12.041 2.887-16.221 7.067-4.38 4.39-7.09 10.44-7.09 17.13v128.6c0 9.19 3.18 18.1 9.01 25.2l59.19 72.24v54.14l.04.25c.94-.17 1.91-.25 2.9-.25h19.817v-56.22z" fill="#ffb09e"/><path d="m95.372 450.881-27.787 15.333v21.018c0 4.96 4.021 8.982 8.981 8.982h134.107c4.96 0 8.981-4.021 8.981-8.982v-21.018l-15.753-15.333z" fill="#62dbfb"/><g><path d="m290.76 436.665.04.25c.94-.17 1.9-.25 2.89-.25h117.81c.99 0 1.96.08 2.9.25l.04-.25v-54.14l59.19-72.24c5.83-7.1 9.01-16.01 9.01-25.2v-128.6c0-6.69-2.71-12.74-7.09-17.13-4.38-4.38-10.44-7.09-17.13-7.09-12.87 0-23.49 10.07-24.18 22.93l-4.77 89.45-.16.21c-3.53-2.69-7.78-4.05-12.04-4.05-4.47 0-8.95 1.49-12.64 4.52l-103.72 84.96c-6.43 5.26-10.15 13.13-10.15 21.44z" fill="#ffcebf"/></g><path d="m449.402 238.127c2.334-1.769 3.771-4.476 3.927-7.401l3.516-65.931c.633-11.798 9.626-21.242 21.044-22.722-.713-.963-1.494-1.872-2.338-2.718-4.38-4.38-10.44-7.09-17.13-7.09-12.87 0-23.49 10.07-24.18 22.93l-4.77 89.45-.16.21c-3.53-2.69-7.78-4.05-12.04-4.05-4.47 0-8.95 1.49-12.64 4.52l-103.72 84.96c-6.43 5.26-10.15 13.13-10.15 21.44v84.94l.04.25c.94-.17 1.9-.25 2.89-.25h19.674v-75.34c0-8.31 3.72-16.18 10.15-21.44l103.72-84.96z" fill="#ffb09e"/><g><g><path d="m111.825 329.334c-1.919 0-3.839-.732-5.304-2.197l-46.98-46.98c-5.184-5.184-8.039-12.077-8.039-19.408 0-7.332 2.855-14.224 8.039-19.408 2.93-2.929 7.678-2.929 10.607 0s2.929 7.678 0 10.606c-2.352 2.351-3.646 5.477-3.646 8.802s1.295 6.451 3.646 8.802l46.98 46.98c2.929 2.929 2.929 7.678 0 10.606-1.464 1.465-3.384 2.197-5.303 2.197z" fill="#ffb09e"/></g><g id="XMLID_460_"><g fill="#99e6fc"><path d="m428.344 437.795v28.42h-152.07v-28.42c0-8.47 6.16-15.51 14.24-16.88.94-.17 1.9-.25 2.89-.25h117.81c.99 0 1.96.08 2.9.25 8.08 1.37 14.23 8.41 14.23 16.88z"/><path d="m219.654 437.795v28.42h-152.07v-28.42c0-8.47 6.15-15.51 14.23-16.88.94-.17 1.91-.25 2.9-.25h117.81c.99 0 1.95.08 2.89.25 8.08 1.37 14.24 8.41 14.24 16.88z"/></g></g></g></g></g><path d="m444.427 260.749c0-7.332-2.855-14.224-8.041-19.41-.904-.903-1.868-1.74-2.865-2.487-1.111-.832-2.378-1.302-3.665-1.445l-.386 7.237-.16.21c-2.115-1.612-4.491-2.736-6.971-3.386-1.619 3.188-.773 7.17 2.188 9.388.431.323.854.691 1.254 1.091 2.352 2.351 3.646 5.477 3.646 8.802s-1.295 6.451-3.646 8.802l-46.98 46.98c-2.929 2.929-2.929 7.678 0 10.606 1.465 1.465 3.384 2.197 5.304 2.197 1.919 0 3.839-.732 5.304-2.197l46.98-46.98c5.183-5.183 8.038-12.076 8.038-19.408z" fill="#ffb09e"/></svg>