<svg id="Layer_1" enable-background="new 0 0 512 512" height="512" viewBox="0 0 512 512" width="512" xmlns="http://www.w3.org/2000/svg"><g><g id="XMLID_38_"><g><g id="XMLID_297_"><g id="XMLID_298_"><g id="XMLID_299_"><g id="XMLID_300_"><g id="XMLID_301_"><g id="XMLID_302_"><g id="XMLID_303_"><g id="XMLID_304_"><g id="XMLID_305_"><g id="XMLID_306_"><g id="XMLID_307_"><g id="XMLID_308_"><g id="XMLID_309_"><circle id="XMLID_310_" cx="256" cy="256" fill="#7bdbd8" r="256"/></g></g></g></g></g></g></g></g></g></g></g></g></g></g></g><path d="m174.348 498.697c25.644 8.624 53.101 13.303 81.652 13.303 141.385 0 256-114.615 256-256 0-29.495-5.004-57.816-14.182-84.184l-84.507-85.006-21.132-1.865-18.179-18.248-30.52 39.323s-8.835-9.167-9.496-9.538l-32.38 25.039-8.616-8.76-28.754 11.881-12.059-12.078-23.115 1.127-17.572-18.048-13.296-1.21-26.756-27.11-23.855 38.221-18.939-18.948-19.642 131.473-79.993 25.38 69.578 70.066 12.623 31.027-9.635 83.458z" fill="#42baba"/><g><g><g><g><path d="m174.78 76.64v151.63c0 8.08-6.55 14.63-14.64 14.63h-11.4c-8.08 0-14.63-6.55-14.63-14.63v-151.63c0-8.09 6.55-14.64 14.63-14.64h11.4c8.09 0 14.64 6.55 14.64 14.64z" fill="#ffd097"/><path d="m174.78 76.64v146.36c0 10.99-8.91 19.9-19.91 19.9h-.42v-180.9h5.69c8.09 0 14.64 6.55 14.64 14.64z" fill="#ffc473"/><path d="m200.82 218.069h-11.404c-8.083 0-14.636-6.553-14.636-14.636v-97.777c0-8.083 6.553-14.636 14.636-14.636h11.404c8.083 0 14.636 6.553 14.636 14.636v97.777c-.001 8.083-6.553 14.636-14.636 14.636z" fill="#ffd097"/><path d="m241.381 234.859h-11.404c-8.083 0-14.636-6.553-14.636-14.636v-97.777c0-8.083 6.553-14.636 14.636-14.636h11.404c8.083 0 14.636 6.553 14.636 14.636v97.777c0 8.084-6.553 14.636-14.636 14.636z" fill="#ffc473"/><path d="m256.017 196.928v47.716l-.011.069-20.424 85.46v97.827h-134.009v-93.093l-10.554-34.207c-3.332-10.828-10.143-20.253-19.363-26.825l-42.798-30.533c-5.876-4.187-8.877-10.235-8.877-16.373 0-5.112 2.077-10.292 6.31-14.525 9.333-9.322 25.752-10.691 36.5-3.024l13.338 8.877c7.405 4.918 17.297-.388 17.297-9.276v-108.735c0-10.988 8.923-19.91 19.91-19.91h.856c10.999 0 19.91 8.923 19.91 19.91v96.642z" fill="#ffdba9"/><path d="m256.017 196.916v47.727l-.011.069-20.424 85.46v97.828h-81.136v-231.084z" fill="#ffd097"/></g></g><g><path d="m377.89 76.64v151.63c0 8.08-6.55 14.63-14.63 14.63h-11.41c-8.08 0-14.63-6.55-14.63-14.63v-151.63c0-8.09 6.55-14.64 14.63-14.64h11.41c8.08 0 14.63 6.55 14.63 14.64z" fill="#773600"/><path d="m357.55 62v180.9h-.43c-10.99 0-19.9-8.91-19.9-19.9v-146.36c0-8.09 6.55-14.64 14.63-14.64z" fill="#5e2d00"/><path d="m311.18 218.069h11.404c8.083 0 14.636-6.553 14.636-14.636v-97.777c0-8.083-6.553-14.636-14.636-14.636h-11.404c-8.083 0-14.636 6.553-14.636 14.636v97.777c0 8.083 6.553 14.636 14.636 14.636z" fill="#773600"/><path d="m270.618 234.859h11.404c8.083 0 14.636-6.553 14.636-14.636v-97.777c0-8.083-6.553-14.636-14.636-14.636h-11.404c-8.083 0-14.636 6.553-14.636 14.636v97.777c0 8.084 6.553 14.636 14.636 14.636z" fill="#5e2d00"/><path d="m492.019 226.97c0 6.139-3.001 12.186-8.877 16.373l-42.81 30.533c-9.219 6.572-16.02 15.997-19.351 26.825l-10.554 34.207v93.092h-134.009v-97.828l-20.412-85.46-.023-.069v-47.716h121.914v-96.642c0-10.988 8.911-19.91 19.899-19.91h.867c10.988 0 19.91 8.923 19.91 19.91v108.736c0 8.888 9.892 14.194 17.297 9.276l13.338-8.877c10.748-7.667 27.167-6.298 36.5 3.024 4.234 4.234 6.311 9.414 6.311 14.526z" fill="#91410a"/><path d="m357.553 196.916v231.084h-81.135v-97.828l-20.412-85.46-.023-.069v-47.727z" fill="#773600"/></g></g><g><path d="m326.498 165.958c-13.406-4.596-27.886-4.286-40.774.875-11.742 4.702-21.891 13.241-29.724 24.927-7.834-11.686-17.983-20.225-29.724-24.927-12.887-5.162-27.368-5.471-40.774-.875-25.493 8.742-49.026 36.719-40.45 77.485 3.234 15.371 11.048 30.807 23.226 45.882 9.596 11.878 21.923 23.576 36.639 34.769 24.93 18.962 47.852 29.815 48.815 30.268l2.267 1.065 2.267-1.065c.964-.453 23.885-11.306 48.815-30.268 14.716-11.193 27.044-22.891 36.639-34.769 12.178-15.074 19.992-30.511 23.226-45.882 8.578-40.766-14.954-68.743-40.448-77.485z" fill="#ff735c"/><path d="m366.948 243.441c-3.236 15.37-11.048 30.807-23.227 45.878-9.597 11.879-21.919 23.582-36.635 34.774-24.934 18.961-47.85 29.82-48.814 30.264l-2.272 1.075v-163.675c7.835-11.68 17.985-20.224 29.721-24.922 12.888-5.164 27.371-5.474 40.78-.875 25.487 8.743 49.024 36.713 40.447 77.481z" fill="#fc435f"/></g></g></g></svg>