<svg height="464pt" viewBox="0 0 464 464" width="464pt" xmlns="http://www.w3.org/2000/svg"><path d="m424 216v-48h-33.992188c-1.746093-11.722656-4.804687-23.214844-9.113281-34.257812l29.386719-16.957032-24-41.601562-29.359375 16.953125c-7.414063-9.261719-15.828125-17.675781-25.089844-25.089844l16.96875-29.328125-41.601562-24-16.960938 29.386719c-11.035156-4.308594-22.519531-7.363281-34.238281-9.113281v-33.992188h-48v33.992188c-8.128906 1.21875-16.152344 3.058593-24 5.503906-3.472656 1.066406-6.890625 2.269531-10.257812 3.609375l-16.941407-29.386719-41.601562 24 16.953125 29.359375c-9.261719 7.414063-17.675782 15.828125-25.089844 25.089844l-29.34375-16.96875-24 41.601562 29.386719 16.960938c-4.308594 11.035156-7.363281 22.519531-9.113281 34.238281h-33.992188v48h33.992188c1.746093 11.722656 4.804687 23.214844 9.113281 34.257812l-29.386719 16.941407 24 41.601562 29.359375-16.953125c7.414063 9.261719 15.828125 17.675782 25.089844 25.089844l-16.96875 29.34375 41.601562 24 16.960938-29.386719c5.953125 2.332031 12.042969 4.292969 18.238281 5.875 5.273438 1.351563 10.613281 2.433594 16 3.238281v33.992188h48v-33.992188c11.722656-1.746093 23.214844-4.804687 34.257812-9.113281l16.957032 29.386719 41.601562-24-16.953125-29.359375c9.261719-7.414063 17.675781-15.828125 25.089844-25.089844l29.359375 16.953125 24-41.601562-29.382812-16.960938c4.292968-11.03125 7.339843-22.511718 9.078124-34.222656zm-192 66c-49.707031 0-90-40.292969-90-90s40.292969-90 90-90 90 40.292969 90 90-40.292969 90-90 90zm0 0" fill="#ffc24f"/><path d="m424 216v-48h-33.992188c-1.746093-11.722656-4.804687-23.214844-9.113281-34.257812l29.386719-16.957032-24-41.601562-29.359375 16.953125c-3.082031-3.847657-6.402344-7.457031-9.851563-10.992188-10.816406 22.914063-23.125 45.09375-36.847656 66.398438 19.472656 34.0625 14.597656 76.8125-12.035156 105.617187-26.636719 28.804688-68.878906 37.003906-104.355469 20.253906-20.519531 15.296876-42.324219 28.792969-65.167969 40.339844 1.199219 1.023438 2.273438 2.175782 3.503907 3.199219l-16.96875 29.328125 41.601562 24 16.960938-29.386719c5.953125 2.332031 12.042969 4.292969 18.238281 5.875 5.273438 1.351563 10.613281 2.433594 16 3.238281v33.992188h48v-33.992188c11.722656-1.746093 23.214844-4.804687 34.257812-9.113281l16.957032 29.386719 41.601562-24-16.953125-29.359375c9.261719-7.414063 17.675781-15.828125 25.089844-25.089844l29.359375 16.953125 24-41.601562-29.382812-16.960938c4.292968-11.03125 7.339843-22.511718 9.078124-34.222656zm0 0" fill="#ffb026"/><path d="m64 160c17.671875 0 32 14.328125 32 32v16c0 17.671875-14.328125 32-32 32s-32-14.328125-32-32v-16c0-17.671875 14.328125-32 32-32zm0 0" fill="#4398d1"/><path d="m126.152344 254.769531c-3.726563-8.945312-12.464844-14.769531-22.152344-14.769531h-80c-13.253906 0-24 10.746094-24 24v88h32v96l-8 16h80l-8-16v-176l36.0625 68.265625c3.542969 7.125 12.101562 10.15625 19.339844 6.84375 7.238281-3.3125 10.539062-11.769531 7.460937-19.109375zm0 0" fill="#4398d1"/><path d="m56 352h16v112h-16zm0 0" fill="#2d7db3"/><path d="m24 272h16v80h-16zm0 0" fill="#2d7db3"/><g fill="#4398d1"><path d="m232 160c17.671875 0 32 14.328125 32 32v16c0 17.671875-14.328125 32-32 32s-32-14.328125-32-32v-16c0-17.671875 14.328125-32 32-32zm0 0"/><path d="m326.863281 328-32.710937-73.230469c-3.726563-8.945312-12.464844-14.769531-22.152344-14.769531h-80c-9.6875 0-18.425781 5.824219-22.152344 14.769531l-36.648437 73.230469c-2.714844 6.511719-.4375 14.03125 5.433593 17.945312 3.519532 2.34375 7.875 3.066407 11.964844 1.980469 4.085938-1.085937 7.511719-3.878906 9.402344-7.660156l40-68.265625v176l-8 16h80l-8-16v-176l36.0625 68.265625c1.890625 3.78125 5.316406 6.574219 9.402344 7.660156 4.089844 1.085938 8.449218.363281 11.96875-1.980469 5.867187-3.914062 8.140625-11.433593 5.429687-17.945312zm0 0"/><path d="m400 240c-17.671875 0-32-14.328125-32-32v-16c0-17.671875 14.328125-32 32-32s32 14.328125 32 32v16c0 17.671875-14.328125 32-32 32zm0 0"/><path d="m464 352v-88c0-13.253906-10.746094-24-24-24h-80c-9.6875 0-18.425781 5.824219-22.152344 14.769531l-36.648437 76.796875c-3.15625 7.355469.128906 15.886719 7.40625 19.222656 7.277343 3.335938 15.886719.253907 19.394531-6.941406l40-71.847656v176l-8 16h80l-8-16v-96zm0 0"/></g><path d="m224 352h16v112h-16zm0 0" fill="#2d7db3"/><path d="m56 240h16v80h-16zm0 0" fill="#7abdeb"/><path d="m224 240h16v80h-16zm0 0" fill="#7abdeb"/><path d="m392 240h16v80h-16zm0 0" fill="#7abdeb"/><path d="m392 352h16v112h-16zm0 0" fill="#2d7db3"/><path d="m424 272h16v80h-16zm0 0" fill="#2d7db3"/></svg>