<svg height="512" viewBox="0 0 64 64" width="512" xmlns="http://www.w3.org/2000/svg"><path d="m61 24a20.985 20.985 0 0 1 -17 20.61 20.248 20.248 0 0 1 -4 .39 21 21 0 0 1 -4.88-41.42h.01a20.549 20.549 0 0 1 4.87-.58 21 21 0 0 1 21 21z" fill="#ff7956"/><circle cx="40" cy="24" fill="#46f8ff" r="17"/><path d="m44 44.61v16.39h-20v-12h-7a6 6 0 0 1 -6-6v-4h-8l5-20a23.124 23.124 0 0 1 23.07-15.98 21.709 21.709 0 0 1 4.05.56 21 21 0 0 0 4.88 41.42 20.248 20.248 0 0 0 4-.39z" fill="#ffc477"/><circle cx="40" cy="24" fill="#ff3051" r="2"/><path d="m62 24a21.982 21.982 0 0 0 -26.9-21.442 22.939 22.939 0 0 0 -3.982-.537 24.112 24.112 0 0 0 -24.088 16.737l-5 20a1 1 0 0 0 .97 1.242h7v3a7.008 7.008 0 0 0 7 7h6v11a1 1 0 0 0 1 1h20a1 1 0 0 0 1-1v-15.58a22.034 22.034 0 0 0 17-21.42zm-19 36h-18v-11a1 1 0 0 0 -1-1h-7a5.006 5.006 0 0 1 -5-5v-4a1 1 0 0 0 -1-1h-6.719l4.672-18.7a22.113 22.113 0 0 1 21.859-15.282 21.989 21.989 0 0 0 12.188 41.772zm-3-16a20 20 0 1 1 20-20 20.023 20.023 0 0 1 -20 20z"/><path d="m40 6a18 18 0 1 0 18 18 18.021 18.021 0 0 0 -18-18zm0 34a16 16 0 1 1 16-16 16.019 16.019 0 0 1 -16 16z"/><path d="m39 10h2v2h-2z"/><path d="m32.5 11.742h1.999v1.999h-1.999z" transform="matrix(.866 -.5 .5 .866 -1.882 18.462)"/><path d="m27.742 16.5h2v2h-2z" transform="matrix(.5 -.866 .866 .5 -.783 33.644)"/><path d="m26 23h2v2h-2z"/><path d="m27.742 29.5h2v2h-2z" transform="matrix(.866 -.5 .5 .866 -11.398 18.453)"/><path d="m32.5 34.259h1.999v1.999h-1.999z" transform="matrix(.5 -.866 .866 .5 -13.786 46.634)"/><path d="m39 36h2v2h-2z"/><path d="m45.5 34.259h1.999v1.999h-1.999z" transform="matrix(.866 -.5 .5 .866 -11.4 27.982)"/><path d="m50.258 29.5h2v2h-2z" transform="matrix(.5 -.866 .866 .5 -.782 59.646)"/><path d="m52 23h2v2h-2z"/><path d="m50.258 16.5h2v2h-2z" transform="matrix(.866 -.5 .5 .866 -1.884 27.969)"/><path d="m45.5 11.742h1.999v1.999h-1.999z" transform="matrix(.5 -.866 .866 .5 12.21 46.636)"/><path d="m46 25v-2h-3.184a3 3 0 0 0 -1.816-1.816v-7.184h-2v7.184a2.993 2.993 0 1 0 3.816 3.816zm-6 0a1 1 0 1 1 1-1 1 1 0 0 1 -1 1z"/></svg>