<?xml version="1.0" encoding="iso-8859-1"?>
<!-- Generator: Adobe Illustrator 19.0.0, SVG Export Plug-In . SVG Version: 6.00 Build 0)  -->
<svg version="1.1" id="Capa_1" xmlns="http://www.w3.org/2000/svg" xmlns:xlink="http://www.w3.org/1999/xlink" x="0px" y="0px"
	 viewBox="0 0 464 464" style="enable-background:new 0 0 464 464;" xml:space="preserve">
<ellipse style="fill:#E05346;" cx="352" cy="232" rx="112" ry="232"/>
<ellipse style="fill:#F9F1ED;" cx="352" cy="232" rx="80" ry="192"/>
<ellipse style="fill:#E05346;" cx="352" cy="232" rx="56" ry="160"/>
<ellipse style="fill:#F9F1ED;" cx="352" cy="232" rx="32" ry="120"/>
<ellipse style="fill:#6ACCEF;" cx="352" cy="232" rx="8" ry="72"/>
<polygon style="fill:#FCBA5B;" points="168,296 144,272 144,248 176,248 176,184 296,184 296,320 168,320 "/>
<g>
	<rect x="32" y="216" style="fill:#2D2E46;" width="144" height="32"/>
	<rect x="296" y="216" style="fill:#2D2E46;" width="56" height="32"/>
</g>
<g>
	<polygon style="fill:#63C9B5;" points="120,216 32,216 0,168 88,168 	"/>
	<polygon style="fill:#63C9B5;" points="120,248 32,248 0,296 88,296 	"/>
</g>
<rect x="168" y="320" style="fill:#F9F1ED;" width="128" height="64"/>
<rect x="256" y="344" style="fill:#2D2E46;" width="16" height="16"/>
<rect x="168" y="384" style="fill:#6ACCEF;" width="128" height="80"/>
<g>
	<rect x="128" y="88" style="fill:#FCBA5B;" width="96" height="16"/>
	<rect x="96" y="88" style="fill:#FCBA5B;" width="16" height="16"/>
	<rect x="64" y="88" style="fill:#FCBA5B;" width="16" height="16"/>
	<rect x="96" y="120" style="fill:#FCBA5B;" width="96" height="16"/>
	<rect x="64" y="120" style="fill:#FCBA5B;" width="16" height="16"/>
	<rect x="32" y="120" style="fill:#FCBA5B;" width="16" height="16"/>
</g>
<g>
</g>
<g>
</g>
<g>
</g>
<g>
</g>
<g>
</g>
<g>
</g>
<g>
</g>
<g>
</g>
<g>
</g>
<g>
</g>
<g>
</g>
<g>
</g>
<g>
</g>
<g>
</g>
<g>
</g>
</svg>
